<?xml version="1.0" encoding="UTF-8" standalone="no"?>
<!-- Created with Inkscape (http://www.inkscape.org/) -->

<svg
   width="205.16299mm"
   height="54.245945mm"
   viewBox="0 0 205.16299 54.245945"
   version="1.1"
   id="svg5"
   inkscape:version="1.2.2 (732a01da63, 2022-12-09)"
   sodipodi:docname="reperiods_all.svg"
   xmlns:inkscape="http://www.inkscape.org/namespaces/inkscape"
   xmlns:sodipodi="http://sodipodi.sourceforge.net/DTD/sodipodi-0.dtd"
   xmlns="http://www.w3.org/2000/svg"
   xmlns:svg="http://www.w3.org/2000/svg">
  <sodipodi:namedview
     id="namedview7"
     pagecolor="#ffffff"
     bordercolor="#000000"
     borderopacity="0.25"
     inkscape:showpageshadow="2"
     inkscape:pageopacity="0.0"
     inkscape:pagecheckerboard="0"
     inkscape:deskcolor="#d1d1d1"
     inkscape:document-units="mm"
     showgrid="false"
     inkscape:zoom="0.76167929"
     inkscape:cx="397.80522"
     inkscape:cy="563.22918"
     inkscape:window-width="2400"
     inkscape:window-height="1284"
     inkscape:window-x="-9"
     inkscape:window-y="-9"
     inkscape:window-maximized="1"
     inkscape:current-layer="layer1" />
  <defs
     id="defs2">
    <clipPath
       id="clip0">
      <rect
         x="123"
         y="176"
         width="1386"
         height="404"
         id="rect132" />
    </clipPath>
  </defs>
  <g
     inkscape:label="Calque 1"
     inkscape:groupmode="layer"
     id="layer1"
     transform="translate(-4.1347409,-59.54545)">
    <g
       clip-path="url(#clip0)"
       transform="matrix(0.16192818,0,0,0.16192818,-15.782425,24.083179)"
       id="g201"
       inkscape:export-filename="reperiods\reperiods.svg"
       inkscape:export-xdpi="96"
       inkscape:export-ydpi="96">
      <text
         fill="#e82137"
         font-family="Poppins, Poppins_MSFontService, sans-serif"
         font-weight="700"
         font-size="192px"
         transform="translate(414.894,410)"
         id="text137">RePeriods</text>
      <path
         d="m 432,438 h 958"
         stroke="#000000"
         stroke-width="10"
         stroke-miterlimit="8"
         fill="none"
         fill-rule="evenodd"
         id="path139" />
      <path
         d="m 432,481 h 70.866"
         stroke="#bf0000"
         stroke-width="10"
         stroke-miterlimit="8"
         fill="none"
         fill-rule="evenodd"
         id="path141" />
      <path
         d="m 513,481 h 70.866"
         stroke="#ff0000"
         stroke-width="10"
         stroke-miterlimit="8"
         fill="none"
         fill-rule="evenodd"
         id="path143" />
      <path
         d="m 593,481 h 70.866"
         stroke="#ffbf00"
         stroke-width="10"
         stroke-miterlimit="8"
         fill="none"
         fill-rule="evenodd"
         id="path145" />
      <path
         d="m 674,481 h 70.866"
         stroke="#ffff00"
         stroke-width="10"
         stroke-miterlimit="8"
         fill="none"
         fill-rule="evenodd"
         id="path147" />
      <path
         d="m 755,481 h 70.866"
         stroke="#92d050"
         stroke-width="10"
         stroke-miterlimit="8"
         fill="none"
         fill-rule="evenodd"
         id="path149" />
      <path
         d="m 835,481 h 70.866"
         stroke="#00af4e"
         stroke-width="10"
         stroke-miterlimit="8"
         fill="none"
         fill-rule="evenodd"
         id="path151" />
      <path
         d="m 916,481 h 70.866"
         stroke="#00b0f0"
         stroke-width="10"
         stroke-miterlimit="8"
         fill="none"
         fill-rule="evenodd"
         id="path153" />
      <path
         d="m 997,481 h 70.87"
         stroke="#187dc6"
         stroke-width="10"
         stroke-miterlimit="8"
         fill="none"
         fill-rule="evenodd"
         id="path155" />
      <path
         d="m 1077,481 h 70.87"
         stroke="#18356f"
         stroke-width="10"
         stroke-miterlimit="8"
         fill="none"
         fill-rule="evenodd"
         id="path157" />
      <path
         d="m 1158,481 h 70.87"
         stroke="#7030a0"
         stroke-width="10"
         stroke-miterlimit="8"
         fill="none"
         fill-rule="evenodd"
         id="path159" />
      <path
         d="m 1238,481 h 70.87"
         stroke="#ca00ca"
         stroke-width="10"
         stroke-miterlimit="8"
         fill="none"
         fill-rule="evenodd"
         id="path161" />
      <path
         d="m 1319,481 h 70.87"
         stroke="#ff99ff"
         stroke-width="10"
         stroke-miterlimit="8"
         fill="none"
         fill-rule="evenodd"
         id="path163" />
      <path
         d="m 432,523 h 70.866"
         stroke="#bf0000"
         stroke-width="10"
         stroke-miterlimit="8"
         fill="none"
         fill-rule="evenodd"
         id="path165" />
      <path
         d="m 513,523 h 70.866"
         stroke="#bf0000"
         stroke-width="10"
         stroke-miterlimit="8"
         fill="none"
         fill-rule="evenodd"
         id="path167" />
      <path
         d="m 593,523 h 70.866"
         stroke="#bf0000"
         stroke-width="10"
         stroke-miterlimit="8"
         fill="none"
         fill-rule="evenodd"
         id="path169" />
      <path
         d="m 674,523 h 70.866"
         stroke="#92d050"
         stroke-width="10"
         stroke-miterlimit="8"
         fill="none"
         fill-rule="evenodd"
         id="path171" />
      <path
         d="m 755,523 h 70.866"
         stroke="#92d050"
         stroke-width="10"
         stroke-miterlimit="8"
         fill="none"
         fill-rule="evenodd"
         id="path173" />
      <path
         d="m 835,523 h 70.866"
         stroke="#92d050"
         stroke-width="10"
         stroke-miterlimit="8"
         fill="none"
         fill-rule="evenodd"
         id="path175" />
      <path
         d="m 916,523 h 70.866"
         stroke="#92d050"
         stroke-width="10"
         stroke-miterlimit="8"
         fill="none"
         fill-rule="evenodd"
         id="path177" />
      <path
         d="m 997,523 h 70.87"
         stroke="#ca00ca"
         stroke-width="10"
         stroke-miterlimit="8"
         fill="none"
         fill-rule="evenodd"
         id="path179" />
      <path
         d="m 1077,523 h 70.87"
         stroke="#ca00ca"
         stroke-width="10"
         stroke-miterlimit="8"
         fill="none"
         fill-rule="evenodd"
         id="path181" />
      <path
         d="m 1158,523 h 70.87"
         stroke="#ca00ca"
         stroke-width="10"
         stroke-miterlimit="8"
         fill="none"
         fill-rule="evenodd"
         id="path183" />
      <path
         d="m 1238,523 h 70.87"
         stroke="#ca00ca"
         stroke-width="10"
         stroke-miterlimit="8"
         fill="none"
         fill-rule="evenodd"
         id="path185" />
      <path
         d="m 1319,523 h 70.87"
         stroke="#ca00ca"
         stroke-width="10"
         stroke-miterlimit="8"
         fill="none"
         fill-rule="evenodd"
         id="path187" />
      <path
         d="m 306.001,247.667 c 0,8.191 -6.07,14.334 -15.173,14.334 H 232.161 C 224.069,262.001 218,255.858 218,247.667 V 233.333 C 218,225.143 224.069,219 232.161,219 h 58.667 c 8.093,0 15.173,6.143 15.173,14.333 z"
         fill="#404040"
         fill-rule="evenodd"
         id="path189" />
      <path
         d="m 241,255 h 43 v 44 h -43 z"
         fill="#404040"
         fill-rule="evenodd"
         id="path191" />
      <path
         d="m 375.275,331.188 11.16,-11.213 c 6.087,-6.116 6.087,-15.291 0,-20.387 -6.087,-6.117 -15.217,-6.117 -20.29,0 L 356,309.781 c 0,0 3.044,19.369 5.073,21.407 4.058,4.078 14.202,0 14.202,0 z"
         fill="#404040"
         fill-rule="evenodd"
         id="path193" />
      <path
         d="M 169.001,309.886 158.86,299.62 c -6.085,-6.16 -15.212,-6.16 -21.297,0 -6.084,6.16 -6.084,15.399 0,20.532 l 11.156,11.293 c 0,0 9.126,4.106 14.197,-1.027 3.042,-1.025 6.085,-20.532 6.085,-20.532 z"
         fill="#404040"
         fill-rule="evenodd"
         id="path195" />
      <path
         d="m 263,554 c -77.101,0 -140,-62.899 -140,-140 0,-77.101 62.899,-140 140,-140 77.102,0 140,62.899 140,140 0,77.101 -62.898,140 -140,140 z m 0,-251.594 c -61.884,0 -112.609,49.71 -112.609,111.594 0,61.884 50.725,111.594 112.609,111.594 61.884,0 111.595,-50.724 111.595,-111.594 0,-61.884 -49.711,-111.594 -111.595,-111.594 z"
         fill="#404040"
         fill-rule="evenodd"
         id="path197" />
      <path
         d="m 263,317 v 98 h 97.001 c 0,-54.557 -43.449,-98 -97.001,-98 z"
         fill="#404040"
         fill-rule="evenodd"
         id="path199" />
    </g>
  </g>
</svg>
